<svg xmlns="http://www.w3.org/2000/svg" width="600" height="400" viewBox="0 0 600 400" fill="none">
  <rect width="600" height="400" rx="8" fill="#1e293b"/>
  <rect x="40" y="40" width="520" height="30" rx="4" fill="#334155"/>
  <circle cx="60" cy="55" r="6" fill="#ef4444"/>
  <circle cx="80" cy="55" r="6" fill="#eab308"/>
  <circle cx="100" cy="55" r="6" fill="#22c55e"/>
  <rect x="40" y="90" width="200" height="12" rx="2" fill="#3b82f6" opacity="0.6"/>
  <rect x="40" y="115" width="350" height="10" rx="2" fill="#475569"/>
  <rect x="40" y="135" width="300" height="10" rx="2" fill="#475569"/>
  <rect x="40" y="155" width="280" height="10" rx="2" fill="#475569"/>
  <rect x="40" y="190" width="160" height="12" rx="2" fill="#8b5cf6" opacity="0.6"/>
  <rect x="40" y="215" width="520" height="80" rx="4" fill="#334155"/>
  <rect x="60" y="235" width="200" height="8" rx="2" fill="#64748b"/>
  <rect x="60" y="255" width="180" height="8" rx="2" fill="#64748b"/>
  <rect x="60" y="275" width="220" height="8" rx="2" fill="#64748b"/>
  <rect x="40" y="320" width="520" height="40" rx="4" fill="#334155"/>
  <rect x="60" y="335" width="120" height="10" rx="2" fill="#22c55e" opacity="0.5"/>
</svg>
